<svg width="451" height="358" viewBox="0 0 451 358" fill="none" xmlns="http://www.w3.org/2000/svg">
<g clip-path="url(#clip0_93_64)">
<path d="M289.523 219.196C276.922 219.196 264.459 219.196 251.858 219.196C243.093 219.196 241.312 217.821 242.271 209.295C244.873 187.293 248.708 165.428 252.543 143.564C254.461 132.288 255.967 121.011 257.611 109.598C259.254 98.7344 260.624 87.8709 262.404 77.0073C263.363 70.6817 266.376 66.8314 273.772 66.9689C287.057 67.2439 300.206 66.8314 313.491 67.1064C321.709 67.2439 323.352 68.8941 322.256 77.1448C319.243 98.4594 315.682 119.636 312.258 140.813C311.163 147.827 309.93 154.84 308.971 161.853C308.423 165.566 308.971 169.141 313.628 169.416C333.35 170.379 352.388 168.591 368.96 156.215C384.848 144.251 389.778 126.787 391.559 108.223C392.655 95.9841 391.011 84.0205 385.943 72.7444C381.287 62.4309 373.069 56.2429 362.523 53.3551C353.484 50.7423 344.17 49.5047 334.857 49.5047C315.682 49.5047 296.508 49.5047 277.333 49.5047C269.116 49.5047 267.883 48.5421 268.705 40.4289C269.937 29.5653 271.581 18.7018 273.361 7.83825C274.183 3.0253 277.47 0.412548 282.538 0.412548C312.669 0.275035 342.801 -0.82507 372.795 2.47524C413.062 7.01317 439.358 35.7534 447.302 71.3693C452.644 95.1591 452.644 118.674 445.659 141.913C435.523 175.604 413.61 198.569 380.328 210.12C352.388 219.746 323.352 218.921 294.453 219.196C292.673 219.058 291.166 219.058 289.523 219.196Z" fill="#1E429F"/>
<path d="M192.554 219.196C185.432 219.196 178.447 219.196 171.325 219.196C165.299 219.196 162.149 216.583 163.108 210.395C164.614 199.531 166.258 188.668 168.038 177.804C169.956 165.153 172.01 152.64 174.065 139.988C177.626 117.436 181.323 94.884 185.021 72.3319C185.706 67.9315 188.856 66.2813 192.965 66.2813C208.031 66.1438 223.097 66.1438 238.162 66.2813C244.189 66.2813 246.106 69.9942 245.147 75.4947C242.408 92.6838 239.395 109.735 236.656 126.787C233.506 146.864 230.63 166.941 227.479 187.018C226.247 194.856 224.877 202.832 223.644 210.67C222.686 216.308 219.536 219.058 213.783 218.921C206.661 218.783 199.676 218.921 192.554 218.921C192.554 219.196 192.554 219.196 192.554 219.196Z" fill="#1E429F"/>
<path d="M112.706 219.196C106.132 219.196 99.4207 219.196 92.8466 219.196C84.355 219.196 82.4375 217.408 83.5332 209.02C85.0398 197.194 86.8203 185.505 88.6008 173.817C90.5182 161.165 92.5726 148.514 94.6271 136C96.8184 121.974 99.1468 108.085 101.338 94.0589C102.023 90.0711 104.625 88.0084 108.323 87.8709C124.074 87.0458 139.687 87.1833 155.438 87.7333C160.779 88.0084 162.286 91.4462 161.601 96.2591C159.136 112.486 156.807 128.85 154.205 145.076C150.918 165.978 147.22 187.018 143.933 207.92C142.563 216.721 140.509 218.921 131.607 218.921C125.58 219.196 119.143 219.058 112.706 219.196Z" fill="#1E429F"/>
<path d="M32.4467 219.196C25.3247 219.196 18.3397 219.333 11.2177 219.196C4.36964 219.058 2.0413 216.446 3.27395 209.57C6.56102 189.493 10.3959 169.554 13.1352 149.339C14.5048 138.888 16.6961 128.575 17.7918 118.124C18.4766 111.386 22.0376 108.635 27.927 108.498C42.034 108.223 56.2779 108.223 70.3849 108.498C75.8634 108.635 79.5613 111.248 78.4656 117.574C75.5894 135.45 72.7133 153.19 69.974 171.066C68.1935 182.617 66.2761 194.031 64.9065 205.582C63.5369 216.858 61.4824 218.921 50.3886 218.921C44.3623 219.058 38.473 219.058 32.4467 219.196Z" fill="#1E429F"/>
<path d="M136.263 70.4067C130.1 70.4067 123.937 70.4067 117.773 70.4067C109.693 70.4067 108.734 68.7565 110.241 61.0558C112.158 51.0174 113.802 40.8414 115.171 30.6654C115.856 25.5774 118.047 23.1022 122.978 23.1022C136.674 23.1022 150.37 23.1022 163.929 23.1022C168.449 23.1022 170.777 25.4399 170.093 29.9779C168.449 41.2539 166.943 52.53 165.025 63.8061C164.34 68.069 161.327 70.5442 156.67 70.4067C149.959 70.2692 143.111 70.4067 136.263 70.4067Z" fill="#FF6900"/>
<path d="M226.658 1.9252C233.506 1.9252 240.354 2.06272 247.202 1.9252C251.585 1.9252 254.324 3.43785 253.639 8.2508C251.858 19.6644 250.078 31.2155 248.024 42.6291C247.339 46.3419 245.147 48.5421 240.902 48.5421C227.068 48.4046 213.098 48.5421 199.265 48.5421C193.924 48.5421 191.322 45.7919 192.828 40.7039C195.841 30.1154 195.978 19.1143 198.444 8.38832C199.539 3.57536 201.594 1.78769 206.25 1.78769C213.098 1.9252 219.81 1.9252 226.658 1.9252Z" fill="#FF6900"/>
<path d="M53.4018 91.3087C46.8276 91.3087 40.2535 91.3087 33.5424 91.3087C28.3379 91.3087 26.1465 88.971 26.9683 83.4704C28.7488 72.4694 30.2553 61.3308 31.8989 50.3298C32.4467 46.6169 34.775 44.6918 38.473 44.6918C52.9909 44.6918 67.6457 44.6918 82.1636 44.6918C85.5876 44.6918 87.3681 46.4794 86.9572 49.9173C85.4507 61.8809 83.8071 73.8445 81.7527 85.8082C81.0679 89.796 77.5069 91.0337 73.9459 91.1712C67.0979 91.3087 60.2498 91.1712 53.4018 91.1712V91.3087Z" fill="#FF6900"/>
</g>
<path d="M12.4733 296.731C11.7733 296.731 11.053 296.696 10.3124 296.625C9.582 296.564 8.85663 296.437 8.13635 296.244C7.41606 296.062 6.72113 295.808 6.05156 295.483C5.382 295.159 4.75808 294.738 4.17982 294.22C3.60156 293.713 3.09939 293.15 2.6733 292.531C2.25736 291.922 1.91243 291.273 1.63852 290.583C1.36461 289.893 1.15663 289.173 1.01461 288.422C0.882722 287.672 0.81678 286.906 0.81678 286.125C0.81678 284.461 1.08055 282.782 1.60808 281.088C2.14577 279.393 2.93707 277.755 3.982 276.172L7.40591 278.638C7.20301 278.912 6.96461 279.322 6.69069 279.87C6.41678 280.418 6.15301 281.042 5.89939 281.742C5.64577 282.442 5.43272 283.188 5.26026 283.979C5.08779 284.76 5.00156 285.516 5.00156 286.246C5.00156 287.088 5.18924 287.849 5.56461 288.529C5.95011 289.209 6.45736 289.792 7.08635 290.279C7.72548 290.766 8.45591 291.146 9.27765 291.42C10.1095 291.694 10.9719 291.841 11.8646 291.862C12.5849 291.872 13.2849 291.811 13.9646 291.679C14.6443 291.547 15.2885 291.354 15.8972 291.101C16.5059 290.847 17.0588 290.538 17.5559 290.172C18.0632 289.807 18.4943 289.396 18.8494 288.94C19.2146 288.493 19.4885 288.007 19.6711 287.479C19.8639 286.951 19.945 286.399 19.9146 285.82C19.8943 285.384 19.8132 284.892 19.6711 284.344C19.5291 283.796 19.3566 283.238 19.1537 282.67C18.961 282.092 18.7429 281.524 18.4994 280.966C18.2661 280.408 18.0429 279.896 17.8298 279.429C17.6269 278.952 17.4494 278.546 17.2972 278.212C17.145 277.877 17.0487 277.649 17.0081 277.527L21.1472 275.229C21.1776 275.27 21.2639 275.452 21.4059 275.777C21.5581 276.101 21.7356 276.522 21.9385 277.04C22.1516 277.547 22.3748 278.13 22.6081 278.79C22.8414 279.449 23.0595 280.139 23.2624 280.859C23.4755 281.58 23.6581 282.31 23.8103 283.051C23.9624 283.791 24.0588 284.496 24.0994 285.166C24.1095 285.247 24.1146 285.343 24.1146 285.455C24.1146 285.577 24.1146 285.678 24.1146 285.759C24.1146 286.662 24.0132 287.56 23.8103 288.453C23.6074 289.346 23.2929 290.198 22.8668 291.009C22.4508 291.831 21.9233 292.587 21.2842 293.277C20.6552 293.977 19.9095 294.58 19.0472 295.088C18.1849 295.605 17.2059 296.006 16.1103 296.29C15.0146 296.584 13.8023 296.731 12.4733 296.731ZM12.4733 271.607L15.8516 274.986L12.4733 278.364L9.09504 274.986L12.4733 271.607ZM26.5941 286.292C26.6449 285.46 26.6956 284.598 26.7463 283.705C26.797 282.812 26.8376 281.93 26.8681 281.057C26.9086 280.185 26.934 279.338 26.9441 278.516C26.9543 277.694 26.9441 276.938 26.9137 276.249C26.8528 274.808 26.792 273.545 26.7311 272.459C26.6804 271.364 26.6246 270.395 26.5637 269.553C26.513 268.711 26.4572 267.975 26.3963 267.346C26.3456 266.707 26.2898 266.124 26.2289 265.596C26.1681 265.069 26.1021 264.577 26.0311 264.12C25.9601 263.654 25.884 263.172 25.8028 262.675L30.505 261.122C30.7282 262.482 30.9057 263.851 31.0376 265.231C31.1797 266.611 31.2862 267.935 31.3572 269.203C31.4282 270.461 31.4739 271.633 31.4941 272.718C31.5246 273.804 31.5398 274.732 31.5398 275.503C31.5398 276.203 31.5347 276.959 31.5246 277.77C31.5246 278.582 31.5144 279.424 31.4941 280.296C31.484 281.169 31.4637 282.051 31.4333 282.944C31.4028 283.837 31.3572 284.709 31.2963 285.562L26.5941 286.292ZM45.3848 286.246C45.1616 286.246 44.8472 286.231 44.4414 286.201C44.0356 286.17 43.5993 286.059 43.1327 285.866C42.9095 287.124 42.4885 288.316 41.8696 289.442C41.2609 290.578 40.5051 291.638 39.6022 292.622C38.6993 293.617 37.6696 294.53 36.5131 295.362C35.3566 296.193 34.124 296.939 32.8153 297.599L30.0305 293.749C30.7508 293.383 31.4761 292.983 32.2066 292.546C32.937 292.12 33.6319 291.664 34.2914 291.177C34.9609 290.7 35.5798 290.198 36.1479 289.67C36.7261 289.153 37.2283 288.615 37.6544 288.057C38.0805 287.499 38.4153 286.926 38.6587 286.338C38.9022 285.759 39.024 285.171 39.024 284.572C39.024 284.542 39.0189 284.496 39.0087 284.436C39.0087 284.375 39.0087 284.314 39.0087 284.253C39.0087 284.192 39.0037 284.146 38.9935 284.116C38.9935 284.086 38.9935 284.091 38.9935 284.131V284.146C38.9225 283.558 38.8211 282.995 38.6892 282.457C38.5573 281.92 38.3899 281.372 38.187 280.814C37.9943 280.256 37.766 279.672 37.5022 279.064C37.2385 278.445 36.9443 277.77 36.6196 277.04L41.0174 275.122C41.4232 276.34 41.8037 277.354 42.1587 278.166C42.5138 278.978 42.8587 279.627 43.1935 280.114C43.5385 280.601 43.8834 280.946 44.2283 281.149C44.5732 281.341 44.9385 281.438 45.324 281.438H45.4001C45.7348 281.438 46.0493 281.504 46.3435 281.636C46.6377 281.767 46.8914 281.945 47.1044 282.168C47.3276 282.381 47.5001 282.635 47.6218 282.929C47.7537 283.223 47.8196 283.533 47.8196 283.857C47.8196 284.192 47.7537 284.507 47.6218 284.801C47.5001 285.095 47.3276 285.349 47.1044 285.562C46.8914 285.775 46.6377 285.942 46.3435 286.064C46.0493 286.186 45.7298 286.246 45.3848 286.246ZM42.7725 283.842C42.7725 283.507 42.8384 283.193 42.9703 282.899C43.1022 282.604 43.2848 282.351 43.5181 282.138C43.7413 281.925 44.0051 281.757 44.3095 281.636C44.6037 281.504 44.9181 281.438 45.2529 281.438H59.0703C59.395 281.438 59.7044 281.504 59.9986 281.636C60.2928 281.757 60.5464 281.925 60.7595 282.138C60.9826 282.351 61.1602 282.604 61.2921 282.899C61.4239 283.193 61.4899 283.507 61.4899 283.842C61.4899 284.177 61.4239 284.491 61.2921 284.786C61.1602 285.08 60.9826 285.333 60.7595 285.546C60.5464 285.77 60.2928 285.942 59.9986 286.064C59.7044 286.186 59.395 286.246 59.0703 286.246H45.2377C44.9131 286.246 44.6037 286.186 44.3095 286.064C44.0051 285.942 43.7413 285.77 43.5181 285.546C43.2848 285.333 43.1022 285.08 42.9703 284.786C42.8384 284.491 42.7725 284.177 42.7725 283.842ZM70.6115 291.253L67.6898 294.19L64.7985 291.299L61.9376 294.159L58.9854 291.222L61.9072 288.286L64.7985 291.177L67.6593 288.316L70.6115 291.253ZM55.8963 283.842C55.8963 283.507 55.9622 283.193 56.0941 282.899C56.2159 282.604 56.3833 282.351 56.5963 282.138C56.8093 281.914 57.063 281.742 57.3572 281.62C57.6514 281.499 57.9659 281.438 58.3007 281.438H59.9898H60.7202C61.1767 281.438 61.6789 281.417 62.2267 281.377C62.7746 281.336 63.3021 281.27 63.8093 281.179C64.3166 281.088 64.7731 280.966 65.1789 280.814C65.5949 280.651 65.8992 280.449 66.092 280.205C66.2036 280.033 66.2593 279.799 66.2593 279.505C66.2593 279.069 66.1528 278.551 65.9398 277.953C65.7369 277.354 65.4934 276.746 65.2093 276.127C64.9253 275.508 64.6311 274.914 64.3267 274.346C64.0325 273.778 63.7941 273.307 63.6115 272.931L67.9485 270.801C68.263 271.349 68.5673 271.998 68.8615 272.749C69.1557 273.489 69.4195 274.255 69.6528 275.046C69.8862 275.828 70.0738 276.599 70.2159 277.359C70.3579 278.11 70.4289 278.764 70.4289 279.322C70.4289 280.347 70.2463 281.286 69.8811 282.138C69.455 283.091 68.8717 283.883 68.1311 284.512C67.3905 285.13 66.5028 285.587 65.468 285.881C65.1637 285.962 64.7833 286.028 64.3267 286.079C63.8702 286.13 63.4086 286.165 62.942 286.186C62.4753 286.216 62.034 286.231 61.618 286.231C61.2021 286.241 60.8775 286.246 60.6441 286.246H58.4376H58.3007C57.9659 286.246 57.6514 286.186 57.3572 286.064C57.063 285.942 56.8093 285.77 56.5963 285.546C56.3833 285.333 56.2159 285.08 56.0941 284.786C55.9622 284.491 55.8963 284.177 55.8963 283.842ZM73.1469 286.292C73.1976 285.46 73.2483 284.598 73.2991 283.705C73.3498 282.812 73.3904 281.93 73.4208 281.057C73.4614 280.185 73.4867 279.338 73.4969 278.516C73.507 277.694 73.4969 276.938 73.4664 276.249C73.4056 274.808 73.3447 273.545 73.2838 272.459C73.2331 271.364 73.1773 270.395 73.1164 269.553C73.0657 268.711 73.0099 267.975 72.9491 267.346C72.8983 266.707 72.8425 266.124 72.7817 265.596C72.7208 265.069 72.6549 264.577 72.5838 264.12C72.5128 263.654 72.4367 263.172 72.3556 262.675L77.0578 261.122C77.2809 262.482 77.4585 263.851 77.5904 265.231C77.7324 266.611 77.8389 267.935 77.9099 269.203C77.9809 270.461 78.0266 271.633 78.0469 272.718C78.0773 273.804 78.0925 274.732 78.0925 275.503C78.0925 276.203 78.0875 276.959 78.0773 277.77C78.0773 278.582 78.0672 279.424 78.0469 280.296C78.0367 281.169 78.0164 282.051 77.986 282.944C77.9556 283.837 77.9099 284.709 77.8491 285.562L73.1469 286.292ZM108.438 271.79C108.742 271.709 109.051 271.653 109.366 271.622C109.68 271.592 109.99 271.577 110.294 271.577C110.974 271.577 111.674 271.678 112.394 271.881C113.125 272.074 113.855 272.363 114.586 272.749L112.896 277.207C112.409 276.994 111.948 276.832 111.512 276.72C111.075 276.599 110.664 276.538 110.279 276.538C110.015 276.538 109.716 276.568 109.381 276.629C109.057 276.659 108.707 276.756 108.331 276.918C107.956 277.07 107.58 277.268 107.205 277.512C106.84 277.755 106.485 278.039 106.14 278.364C105.795 278.678 105.486 279.013 105.212 279.368C104.948 279.723 104.73 280.093 104.557 280.479C104.385 280.854 104.288 281.22 104.268 281.575C104.248 281.859 104.329 282.092 104.512 282.275C104.694 282.447 104.938 282.599 105.242 282.731C105.546 282.853 105.891 282.964 106.277 283.066C106.662 283.157 107.053 283.264 107.449 283.386L107.89 283.492C108.539 283.644 109.183 283.817 109.822 284.009C110.472 284.202 111.055 284.476 111.572 284.831C112.09 285.176 112.506 285.633 112.82 286.201C113.145 286.769 113.307 287.504 113.307 288.407C113.307 288.59 113.297 288.778 113.277 288.97C113.267 289.173 113.241 289.381 113.201 289.594C113.099 290.142 112.917 290.675 112.653 291.192C112.389 291.72 112.054 292.217 111.649 292.683C111.253 293.16 110.791 293.601 110.264 294.007C109.746 294.423 109.178 294.793 108.559 295.118C107.393 295.696 106.059 296.143 104.557 296.457C103.056 296.782 101.443 296.944 99.7181 296.944C97.6485 296.944 95.8225 296.64 94.2399 296.031C92.6572 295.433 91.3435 294.555 90.2985 293.399C89.5072 292.455 88.9239 291.42 88.5485 290.294C88.1833 289.168 88.0007 287.991 88.0007 286.764C88.0007 286.5 88.0109 286.236 88.0312 285.972C88.0514 285.709 88.0717 285.46 88.092 285.227C88.1326 284.496 88.2138 283.781 88.3355 283.081C88.4572 282.371 88.5942 281.707 88.7464 281.088C88.9087 280.459 89.0812 279.88 89.2638 279.353C89.4464 278.815 89.6138 278.349 89.7659 277.953C89.9181 277.547 90.0449 277.228 90.1464 276.994C90.258 276.751 90.3239 276.604 90.3442 276.553L94.1638 278.151C93.9101 278.749 93.6667 279.338 93.4333 279.916C93.2101 280.484 93.0072 281.072 92.8246 281.681C92.6522 282.28 92.5051 282.914 92.3833 283.583C92.2717 284.253 92.2007 284.983 92.1703 285.775C92.1601 285.886 92.15 286.008 92.1399 286.14C92.1297 286.272 92.1246 286.388 92.1246 286.49C92.1246 287.129 92.221 287.758 92.4138 288.377C92.6167 288.996 92.9464 289.554 93.4029 290.051C93.6768 290.365 94.0319 290.639 94.4681 290.872C94.9145 291.116 95.4167 291.319 95.9746 291.481C96.5326 291.654 97.1312 291.78 97.7703 291.862C98.4094 291.953 99.0587 291.999 99.7181 291.999C101.007 291.999 102.209 291.907 103.325 291.725C104.451 291.552 105.44 291.319 106.292 291.025C107.144 290.741 107.829 290.406 108.346 290.02C108.874 289.645 109.178 289.259 109.259 288.864C109.239 288.864 109.178 288.854 109.077 288.833C108.975 288.813 108.843 288.783 108.681 288.742C108.529 288.712 108.351 288.671 108.149 288.62C107.956 288.58 107.753 288.534 107.54 288.483L106.718 288.301C105.815 288.078 104.963 287.819 104.162 287.525C103.37 287.241 102.675 286.86 102.077 286.383C101.488 285.917 101.017 285.328 100.662 284.618C100.317 283.898 100.144 282.99 100.144 281.894C100.195 280.728 100.438 279.591 100.875 278.486C101.311 277.38 101.899 276.37 102.64 275.457C103.38 274.544 104.243 273.768 105.227 273.129C106.221 272.48 107.296 272.033 108.453 271.79H108.438ZM125.423 275.092C125.809 276.188 126.143 277.258 126.427 278.303C126.549 278.759 126.671 279.236 126.793 279.733C126.914 280.22 127.021 280.712 127.112 281.209C127.214 281.696 127.295 282.178 127.356 282.655C127.417 283.122 127.447 283.558 127.447 283.964C127.447 284.917 127.315 285.846 127.051 286.749C126.798 287.662 126.432 288.544 125.956 289.396C125.489 290.249 124.931 291.065 124.282 291.846C123.632 292.638 122.912 293.378 122.121 294.068C121.33 294.758 120.482 295.397 119.58 295.986C118.677 296.584 117.743 297.122 116.78 297.599L114.01 293.749C114.74 293.383 115.481 292.967 116.232 292.501C116.972 292.044 117.682 291.552 118.362 291.025C119.052 290.497 119.691 289.944 120.28 289.366C120.878 288.788 121.395 288.199 121.832 287.601C122.278 287.002 122.628 286.393 122.882 285.775C123.135 285.166 123.262 284.567 123.262 283.979C123.262 283.553 123.201 283.091 123.08 282.594C122.968 282.097 122.811 281.564 122.608 280.996C122.415 280.418 122.182 279.809 121.908 279.17C121.634 278.521 121.34 277.831 121.025 277.101L125.423 275.092ZM135.611 276.355C135.398 276.314 135.155 276.391 134.881 276.583C134.617 276.766 134.363 277.02 134.12 277.344C133.886 277.659 133.689 278.009 133.526 278.394C133.374 278.78 133.298 279.15 133.298 279.505C133.298 279.84 133.394 280.119 133.587 280.342C133.78 280.565 134.023 280.748 134.318 280.89C134.622 281.032 134.952 281.138 135.307 281.209C135.672 281.28 136.022 281.331 136.357 281.362H136.342C136.605 281.382 136.905 281.397 137.239 281.407C137.584 281.407 137.919 281.407 138.244 281.407C138.345 281.407 138.421 281.412 138.472 281.422C138.533 281.422 138.584 281.422 138.624 281.422C138.665 281.422 138.705 281.422 138.746 281.422C138.797 281.422 138.868 281.417 138.959 281.407C138.807 280.778 138.624 280.18 138.411 279.612C138.208 279.033 137.97 278.516 137.696 278.059C137.422 277.603 137.113 277.228 136.768 276.933C136.423 276.629 136.037 276.436 135.611 276.355ZM128.155 292.288C129.585 292.004 130.889 291.643 132.065 291.207C133.242 290.781 134.272 290.299 135.155 289.762C136.047 289.234 136.783 288.671 137.361 288.072C137.95 287.474 138.365 286.865 138.609 286.246C138.173 286.246 137.711 286.236 137.224 286.216C136.737 286.206 136.336 286.191 136.022 286.17C134.845 286.069 133.77 285.805 132.796 285.379C131.822 284.963 131.046 284.395 130.468 283.675C130.042 283.127 129.737 282.533 129.555 281.894C129.382 281.255 129.296 280.58 129.296 279.87C129.296 279.322 129.347 278.775 129.448 278.227C129.55 277.669 129.692 277.131 129.874 276.614C130.057 276.086 130.27 275.589 130.513 275.122C130.767 274.656 131.036 274.23 131.32 273.844C131.929 273.083 132.593 272.51 133.313 272.125C134.044 271.729 134.81 271.531 135.611 271.531C137.326 271.531 138.873 272.282 140.252 273.783C140.739 274.331 141.176 274.945 141.561 275.625C141.947 276.304 142.271 277.03 142.535 277.801C142.809 278.562 143.017 279.363 143.159 280.205C143.301 281.037 143.372 281.884 143.372 282.746C143.372 283.01 143.362 283.274 143.342 283.538C143.331 283.801 143.316 284.05 143.296 284.283C143.174 285.47 142.905 286.581 142.489 287.616C142.084 288.661 141.556 289.62 140.907 290.492C140.268 291.375 139.522 292.171 138.67 292.881C137.818 293.601 136.889 294.23 135.885 294.768C134.891 295.316 133.836 295.772 132.72 296.138C131.604 296.503 130.458 296.777 129.281 296.959L128.155 292.288ZM146.829 286.292C146.88 285.511 146.925 284.694 146.966 283.842C147.017 282.99 147.057 282.148 147.088 281.316C147.118 280.484 147.143 279.678 147.164 278.896C147.184 278.105 147.194 277.385 147.194 276.736C147.194 275.041 147.169 273.586 147.118 272.368C147.067 271.151 147.006 270.111 146.935 269.249C146.864 268.376 146.783 267.651 146.692 267.072C146.611 266.484 146.535 265.967 146.464 265.52L146.266 264.364L150.999 262.857C151.039 262.999 151.075 263.131 151.105 263.253C151.135 263.375 151.161 263.522 151.181 263.694C151.212 263.857 151.242 264.059 151.272 264.303C151.313 264.546 151.354 264.866 151.394 265.262C151.435 265.657 151.48 266.139 151.531 266.707C151.592 267.275 151.663 267.97 151.744 268.792C151.795 269.583 151.835 270.293 151.866 270.922C151.906 271.551 151.937 272.165 151.957 272.764C151.978 273.362 151.993 273.981 152.003 274.62C152.013 275.249 152.018 275.964 152.018 276.766C152.018 278.085 151.998 279.485 151.957 280.966C151.917 282.437 151.841 283.984 151.729 285.607L146.829 286.292ZM142.766 261.929C142.766 261.868 142.801 261.757 142.872 261.594C142.933 261.422 143.009 261.239 143.101 261.046C143.182 260.854 143.263 260.676 143.344 260.514C143.425 260.341 143.481 260.23 143.512 260.179C143.877 259.621 144.303 259.164 144.79 258.809C145.287 258.454 145.779 258.221 146.266 258.109C146.367 258.089 146.494 258.079 146.646 258.079C146.799 258.069 146.92 258.064 147.012 258.064C147.499 258.064 147.94 258.125 148.335 258.246C148.731 258.358 149.086 258.485 149.401 258.627L149.872 258.855C150.045 258.936 150.217 259.012 150.39 259.083C150.562 259.144 150.745 259.18 150.938 259.19C151.1 259.2 151.267 259.159 151.44 259.068C151.612 258.977 151.78 258.855 151.942 258.703C152.114 258.541 152.277 258.363 152.429 258.17C152.591 257.978 152.743 257.785 152.885 257.592L155.259 259.129C155.249 259.159 155.193 259.256 155.092 259.418C154.991 259.57 154.843 259.758 154.651 259.981C154.468 260.204 154.245 260.443 153.981 260.696C153.728 260.94 153.438 261.168 153.114 261.381C152.789 261.584 152.434 261.751 152.049 261.883C151.673 262.015 151.272 262.076 150.846 262.066C150.532 262.086 150.212 262.025 149.888 261.883C149.563 261.731 149.228 261.574 148.883 261.412C148.549 261.239 148.204 261.097 147.849 260.986C147.493 260.864 147.123 260.843 146.738 260.925C146.504 260.975 146.312 261.067 146.159 261.199C146.017 261.32 145.896 261.467 145.794 261.64C145.693 261.802 145.606 261.98 145.535 262.172C145.464 262.365 145.388 262.553 145.307 262.736L142.766 261.929ZM155.533 292.288C156.963 292.004 158.256 291.643 159.413 291.207C160.58 290.781 161.599 290.299 162.472 289.762C163.354 289.234 164.08 288.671 164.648 288.072C165.216 287.474 165.622 286.865 165.865 286.246C165.429 286.246 164.988 286.236 164.541 286.216C164.095 286.206 163.714 286.191 163.4 286.17C162.223 286.069 161.148 285.805 160.174 285.379C159.2 284.963 158.424 284.395 157.846 283.675C157.419 283.127 157.115 282.533 156.933 281.894C156.76 281.255 156.674 280.58 156.674 279.87C156.674 279.322 156.725 278.775 156.826 278.227C156.927 277.669 157.069 277.131 157.252 276.614C157.435 276.086 157.648 275.589 157.891 275.122C158.145 274.656 158.414 274.23 158.698 273.844C159.306 273.083 159.971 272.51 160.691 272.125C161.422 271.729 162.188 271.531 162.989 271.531C164.704 271.531 166.251 272.282 167.63 273.783C168.056 274.26 168.442 274.788 168.787 275.366C169.132 275.944 169.436 276.563 169.7 277.222C169.964 277.872 170.177 278.551 170.339 279.262C170.512 279.972 170.628 280.697 170.689 281.438H170.978C171.313 281.438 171.627 281.499 171.922 281.62C172.216 281.742 172.469 281.914 172.683 282.138C172.906 282.351 173.083 282.604 173.215 282.899C173.347 283.193 173.413 283.512 173.413 283.857C173.413 284.182 173.347 284.491 173.215 284.786C173.083 285.07 172.906 285.318 172.683 285.531C172.469 285.754 172.216 285.927 171.922 286.049C171.627 286.18 171.313 286.246 170.978 286.246H170.309C169.913 287.738 169.279 289.087 168.406 290.294C167.544 291.501 166.509 292.557 165.302 293.459C164.105 294.362 162.766 295.108 161.285 295.696C159.814 296.285 158.272 296.706 156.659 296.959L155.533 292.288ZM162.989 276.355C162.766 276.355 162.517 276.457 162.243 276.659C161.98 276.852 161.731 277.101 161.498 277.405C161.264 277.709 161.067 278.049 160.904 278.425C160.752 278.8 160.676 279.165 160.676 279.52C160.676 279.865 160.772 280.149 160.965 280.372C161.158 280.596 161.401 280.778 161.696 280.92C162 281.052 162.33 281.154 162.685 281.225C163.04 281.286 163.385 281.331 163.719 281.362C163.902 281.382 164.1 281.397 164.313 281.407C164.536 281.407 164.764 281.407 164.998 281.407C165.231 281.407 165.459 281.412 165.683 281.422C165.916 281.422 166.129 281.428 166.322 281.438C166.251 280.941 166.139 280.474 165.987 280.038C165.835 279.601 165.662 279.196 165.469 278.82C165.287 278.445 165.084 278.11 164.861 277.816C164.648 277.512 164.44 277.248 164.237 277.025C164.166 276.954 164.075 276.878 163.963 276.796C163.862 276.715 163.755 276.644 163.643 276.583C163.532 276.512 163.415 276.457 163.293 276.416C163.182 276.375 163.08 276.355 162.989 276.355ZM168.485 283.842C168.485 283.507 168.551 283.193 168.683 282.899C168.815 282.604 168.998 282.351 169.231 282.138C169.454 281.925 169.718 281.757 170.022 281.636C170.317 281.504 170.631 281.438 170.966 281.438H184.783C185.108 281.438 185.417 281.504 185.711 281.636C186.006 281.757 186.259 281.925 186.472 282.138C186.696 282.351 186.873 282.604 187.005 282.899C187.137 283.193 187.203 283.507 187.203 283.842C187.203 284.177 187.137 284.491 187.005 284.786C186.873 285.08 186.696 285.333 186.472 285.546C186.259 285.77 186.006 285.942 185.711 286.064C185.417 286.186 185.108 286.246 184.783 286.246H170.951C170.626 286.246 170.317 286.186 170.022 286.064C169.718 285.942 169.454 285.77 169.231 285.546C168.998 285.333 168.815 285.08 168.683 284.786C168.551 284.491 168.485 284.177 168.485 283.842ZM182.264 283.842C182.264 283.507 182.329 283.193 182.461 282.899C182.583 282.604 182.751 282.351 182.964 282.138C183.177 281.914 183.43 281.742 183.724 281.62C184.019 281.499 184.333 281.438 184.668 281.438H186.235H186.92C187.295 281.438 187.686 281.422 188.092 281.392C188.508 281.362 188.893 281.301 189.248 281.209C189.614 281.118 189.933 280.991 190.207 280.829C190.491 280.667 190.694 280.449 190.816 280.175C190.897 279.992 190.937 279.718 190.937 279.353C190.937 279.109 190.866 278.744 190.724 278.257C190.582 277.77 190.395 277.233 190.161 276.644C189.928 276.046 189.664 275.422 189.37 274.772C189.076 274.123 188.777 273.509 188.472 272.931L192.824 270.77C193.108 271.409 193.387 272.089 193.661 272.809C193.945 273.53 194.199 274.26 194.422 275.001C194.645 275.741 194.823 276.482 194.955 277.222C195.097 277.953 195.168 278.653 195.168 279.322C195.168 280.347 194.985 281.286 194.62 282.138C194.194 283.091 193.611 283.883 192.87 284.512C192.129 285.13 191.242 285.587 190.207 285.881C189.598 286.054 189.015 286.155 188.457 286.186C187.899 286.226 187.377 286.246 186.89 286.246H184.805H184.668C184.333 286.246 184.019 286.186 183.724 286.064C183.43 285.942 183.177 285.77 182.964 285.546C182.751 285.333 182.583 285.08 182.461 284.786C182.329 284.491 182.264 284.177 182.264 283.842ZM189.796 262.172L193.174 265.551L189.796 268.929L186.418 265.551L189.796 262.172ZM216.511 296.168C215.568 296.168 214.594 296.112 213.59 296.001C212.595 295.899 211.632 295.701 210.698 295.407C209.775 295.113 208.913 294.697 208.111 294.159C207.31 293.632 206.635 292.942 206.087 292.09C205.57 291.268 205.169 290.365 204.885 289.381C204.601 288.397 204.459 287.296 204.459 286.079C204.459 285.186 204.495 284.339 204.566 283.538C204.647 282.726 204.769 281.925 204.931 281.133C205.093 280.342 205.301 279.541 205.555 278.729C205.819 277.917 206.133 277.055 206.498 276.142L210.409 277.77C210.115 278.501 209.861 279.16 209.648 279.749C209.445 280.337 209.273 280.875 209.131 281.362C208.989 281.838 208.877 282.28 208.796 282.686C208.715 283.091 208.654 283.482 208.613 283.857C208.573 284.222 208.548 284.588 208.537 284.953C208.527 285.308 208.522 285.683 208.522 286.079C208.522 286.84 208.644 287.499 208.887 288.057C209.131 288.615 209.461 289.087 209.877 289.472C210.292 289.858 210.769 290.172 211.307 290.416C211.855 290.67 212.423 290.862 213.011 290.994C213.6 291.126 214.193 291.217 214.792 291.268C215.4 291.319 215.974 291.344 216.511 291.344C216.775 291.344 217.166 291.324 217.683 291.283C218.2 291.253 218.763 291.192 219.372 291.101C219.991 291.02 220.62 290.908 221.259 290.766C221.908 290.624 222.497 290.446 223.024 290.233C223.552 290.03 223.983 289.787 224.318 289.503C224.653 289.229 224.82 288.904 224.82 288.529C224.82 288.488 224.734 288.417 224.561 288.316C224.399 288.214 224.171 288.093 223.877 287.951C223.592 287.819 223.258 287.667 222.872 287.494C222.497 287.332 222.091 287.164 221.655 286.992H221.67C221.183 286.84 220.671 286.708 220.133 286.596C219.605 286.495 219.083 286.404 218.566 286.322C218.484 286.312 218.378 286.297 218.246 286.277C218.124 286.257 217.998 286.231 217.866 286.201C217.734 286.18 217.602 286.155 217.47 286.125C217.348 286.104 217.247 286.084 217.166 286.064L217.79 281.438H229.994C230.319 281.438 230.628 281.499 230.922 281.62C231.216 281.742 231.47 281.914 231.683 282.138C231.906 282.351 232.084 282.604 232.216 282.899C232.348 283.193 232.413 283.507 232.413 283.842C232.413 284.177 232.348 284.491 232.216 284.786C232.084 285.08 231.906 285.333 231.683 285.546C231.47 285.77 231.216 285.942 230.922 286.064C230.628 286.186 230.319 286.246 229.994 286.246H228.305C228.518 286.652 228.67 287.058 228.761 287.464C228.863 287.88 228.919 288.235 228.929 288.529C228.878 289.483 228.634 290.33 228.198 291.07C227.772 291.821 227.219 292.48 226.54 293.049C225.86 293.617 225.089 294.099 224.227 294.494C223.364 294.89 222.482 295.209 221.579 295.453C220.676 295.707 219.783 295.889 218.9 296.001C218.028 296.112 217.232 296.168 216.511 296.168ZM227.692 283.842C227.692 283.507 227.758 283.193 227.89 282.899C228.012 282.604 228.179 282.351 228.392 282.138C228.605 281.925 228.859 281.757 229.153 281.636C229.447 281.504 229.762 281.438 230.096 281.438H230.233H231.207H231.192C231.537 281.519 231.857 281.483 232.151 281.331C232.445 281.169 232.699 280.941 232.912 280.646C233.125 280.342 233.292 279.997 233.414 279.612C233.536 279.216 233.596 278.825 233.596 278.44C233.617 277.578 233.607 276.477 233.566 275.138C233.525 273.799 233.495 272.236 233.475 270.451C233.454 268.817 233.429 267.321 233.399 265.962C233.378 264.602 233.328 263.288 233.246 262.02L237.979 261.153C238.06 261.802 238.121 262.507 238.162 263.268C238.212 264.019 238.248 264.805 238.268 265.627C238.299 266.449 238.319 267.296 238.329 268.168C238.339 269.041 238.344 269.918 238.344 270.801C238.344 272.191 238.329 273.586 238.299 274.986C238.278 275.686 238.263 276.416 238.253 277.177C238.243 277.938 238.238 278.683 238.238 279.414C238.238 279.586 238.258 279.799 238.299 280.053C238.339 280.307 238.431 280.55 238.573 280.783H238.557C238.679 280.966 238.857 281.123 239.09 281.255C239.323 281.377 239.683 281.438 240.17 281.438C240.505 281.438 240.82 281.504 241.114 281.636C241.408 281.757 241.662 281.925 241.875 282.138C242.098 282.351 242.275 282.604 242.407 282.899C242.539 283.193 242.605 283.507 242.605 283.842C242.605 284.177 242.539 284.491 242.407 284.786C242.275 285.08 242.098 285.333 241.875 285.546C241.662 285.77 241.408 285.942 241.114 286.064C240.82 286.186 240.505 286.246 240.17 286.246C239.267 286.267 238.466 286.109 237.766 285.775C237.066 285.45 236.473 285.049 235.986 284.572C235.407 285.1 234.763 285.506 234.053 285.79C233.343 286.074 232.623 286.226 231.892 286.246H230.233H230.096C229.762 286.246 229.447 286.186 229.153 286.064C228.859 285.942 228.605 285.77 228.392 285.546C228.179 285.333 228.012 285.08 227.89 284.786C227.758 284.491 227.692 284.177 227.692 283.842ZM237.638 283.842C237.638 283.507 237.704 283.193 237.836 282.899C237.958 282.604 238.125 282.351 238.338 282.138C238.551 281.925 238.805 281.757 239.099 281.636C239.393 281.504 239.708 281.438 240.043 281.438H240.18H241.154H241.138C241.483 281.519 241.803 281.483 242.097 281.331C242.391 281.169 242.645 280.941 242.858 280.646C243.071 280.342 243.238 279.997 243.36 279.612C243.482 279.216 243.543 278.825 243.543 278.44C243.563 277.578 243.553 276.477 243.512 275.138C243.472 273.799 243.441 272.236 243.421 270.451C243.401 268.817 243.375 267.321 243.345 265.962C243.325 264.602 243.274 263.288 243.193 262.02L247.925 261.153C248.006 261.802 248.067 262.507 248.108 263.268C248.159 264.019 248.194 264.805 248.214 265.627C248.245 266.449 248.265 267.296 248.275 268.168C248.285 269.041 248.291 269.918 248.291 270.801C248.291 272.191 248.275 273.586 248.245 274.986C248.225 275.686 248.209 276.416 248.199 277.177C248.189 277.938 248.184 278.683 248.184 279.414C248.184 279.586 248.204 279.799 248.245 280.053C248.285 280.307 248.377 280.55 248.519 280.783H248.504C248.625 280.966 248.803 281.123 249.036 281.255C249.27 281.377 249.63 281.438 250.117 281.438C250.451 281.438 250.766 281.504 251.06 281.636C251.354 281.757 251.608 281.925 251.821 282.138C252.044 282.351 252.222 282.604 252.354 282.899C252.485 283.193 252.551 283.507 252.551 283.842C252.551 284.177 252.485 284.491 252.354 284.786C252.222 285.08 252.044 285.333 251.821 285.546C251.608 285.77 251.354 285.942 251.06 286.064C250.766 286.186 250.451 286.246 250.117 286.246C249.214 286.267 248.412 286.109 247.712 285.775C247.012 285.45 246.419 285.049 245.932 284.572C245.354 285.1 244.709 285.506 243.999 285.79C243.289 286.074 242.569 286.226 241.838 286.246H240.18H240.043C239.708 286.246 239.393 286.186 239.099 286.064C238.805 285.942 238.551 285.77 238.338 285.546C238.125 285.333 237.958 285.08 237.836 284.786C237.704 284.491 237.638 284.177 237.638 283.842ZM262.696 281.894C263.02 281.813 263.213 281.392 263.274 280.631C263.335 279.84 263.188 279.13 262.832 278.501C262.518 277.922 262.041 277.42 261.402 276.994C260.763 276.568 260.281 276.421 259.956 276.553C259.52 276.736 258.861 277.862 257.978 279.931C260.525 281.392 262.097 282.046 262.696 281.894ZM270.38 283.842C270.38 284.501 270.147 285.064 269.68 285.531C269.204 285.998 268.635 286.236 267.976 286.246H267.961C266.682 286.246 265.648 285.81 264.856 284.938C264.025 285.77 262.964 286.186 261.676 286.186C260.185 286.186 258.019 285.435 255.178 283.933C254.996 284.319 254.646 284.709 254.128 285.105C253.672 285.45 253.149 285.719 252.561 285.912C251.82 286.155 250.988 286.277 250.065 286.277C249.396 286.277 248.827 286.043 248.361 285.577C247.894 285.11 247.661 284.542 247.661 283.872C247.661 283.213 247.894 282.65 248.361 282.183C248.827 281.717 249.396 281.483 250.065 281.483C251.333 281.483 252.439 280.854 253.382 279.596C253.717 279.14 254.072 278.546 254.448 277.816C254.559 277.593 254.711 277.288 254.904 276.903L255.117 276.446L255.33 276.02C256.7 273.301 258.409 271.942 260.459 271.942C261.95 271.942 263.269 272.439 264.415 273.433C265.714 274.559 266.449 276.107 266.622 278.075L266.637 278.212C266.657 278.272 266.667 278.343 266.667 278.425C266.688 278.922 266.759 279.424 266.88 279.931C266.992 280.367 267.124 280.712 267.276 280.966C267.479 281.28 267.712 281.438 267.976 281.438C268.635 281.438 269.198 281.671 269.665 282.138C270.142 282.604 270.38 283.172 270.38 283.842ZM265.7 283.842C265.7 283.507 265.766 283.193 265.898 282.899C266.02 282.604 266.187 282.351 266.4 282.138C266.613 281.914 266.867 281.742 267.161 281.62C267.455 281.499 267.77 281.438 268.104 281.438H268.241H268.957C269.413 281.438 269.819 281.397 270.174 281.316C270.539 281.235 270.793 281.123 270.935 280.981V280.996C271.107 280.804 271.239 280.504 271.331 280.099C271.432 279.693 271.478 279.155 271.468 278.486C271.468 278.404 271.452 278.11 271.422 277.603C271.391 277.086 271.351 276.441 271.3 275.67C271.26 274.889 271.204 274.022 271.133 273.068C271.072 272.104 271.006 271.13 270.935 270.146C270.874 269.162 270.813 268.204 270.752 267.27C270.691 266.337 270.631 265.515 270.57 264.805C270.519 264.095 270.473 263.532 270.433 263.116C270.402 262.69 270.382 262.497 270.372 262.538L275.196 261.351C275.206 261.513 275.236 261.893 275.287 262.492C275.338 263.08 275.399 263.811 275.47 264.683C275.541 265.556 275.612 266.53 275.683 267.605C275.754 268.68 275.815 269.776 275.865 270.892L276.109 278.425C276.119 278.851 276.109 279.317 276.078 279.825C276.048 280.332 275.967 280.849 275.835 281.377C275.703 281.894 275.505 282.412 275.241 282.929C274.988 283.446 274.643 283.928 274.207 284.375C272.959 285.622 271.209 286.246 268.957 286.246H268.241H268.104C267.77 286.246 267.455 286.18 267.161 286.049C266.867 285.927 266.613 285.759 266.4 285.546C266.187 285.333 266.02 285.08 265.898 284.786C265.766 284.491 265.7 284.177 265.7 283.842ZM278.498 286.292C278.549 285.46 278.6 284.598 278.651 283.705C278.701 282.812 278.742 281.93 278.772 281.057C278.813 280.185 278.838 279.338 278.848 278.516C278.859 277.694 278.848 276.938 278.818 276.249C278.757 274.808 278.696 273.545 278.635 272.459C278.585 271.364 278.529 270.395 278.468 269.553C278.417 268.711 278.361 267.975 278.301 267.346C278.25 266.707 278.194 266.124 278.133 265.596C278.072 265.069 278.006 264.577 277.935 264.12C277.864 263.654 277.788 263.172 277.707 262.675L282.409 261.122C282.633 262.482 282.81 263.851 282.942 265.231C283.084 266.611 283.19 267.935 283.261 269.203C283.333 270.461 283.378 271.633 283.398 272.718C283.429 273.804 283.444 274.732 283.444 275.503C283.444 276.203 283.439 276.959 283.429 277.77C283.429 278.582 283.419 279.424 283.398 280.296C283.388 281.169 283.368 282.051 283.338 282.944C283.307 283.837 283.261 284.709 283.201 285.562L278.498 286.292ZM319.1 286.246C318.167 286.246 317.259 286.099 316.376 285.805C316.346 286.627 316.234 287.464 316.041 288.316C315.849 289.168 315.57 289.985 315.204 290.766C314.849 291.557 314.398 292.288 313.85 292.957C313.312 293.627 312.678 294.195 311.948 294.662C310.913 295.331 309.777 295.838 308.539 296.183C307.312 296.528 305.907 296.701 304.324 296.701C302.559 296.701 301.042 296.488 299.774 296.062C298.516 295.646 297.42 295.037 296.487 294.236C295.919 293.728 295.422 293.165 294.996 292.546C294.58 291.938 294.235 291.288 293.961 290.599C293.687 289.919 293.479 289.204 293.337 288.453C293.205 287.712 293.139 286.957 293.139 286.186C293.139 285.313 293.2 284.486 293.322 283.705C293.444 282.914 293.631 282.122 293.885 281.331C294.139 280.54 294.453 279.728 294.828 278.896C295.214 278.064 295.665 277.167 296.183 276.203L299.607 278.668C299.312 279.196 299.028 279.789 298.754 280.449C298.481 281.098 298.237 281.772 298.024 282.472C297.821 283.162 297.654 283.852 297.522 284.542C297.4 285.232 297.339 285.876 297.339 286.475C297.339 287.266 297.532 287.991 297.918 288.651C298.303 289.31 298.81 289.873 299.439 290.34C300.078 290.817 300.804 291.187 301.615 291.451C302.427 291.725 303.264 291.867 304.126 291.877C305.313 291.897 306.399 291.801 307.383 291.588C308.367 291.385 309.214 291.055 309.924 290.599C310.634 290.142 311.182 289.554 311.568 288.833C311.963 288.113 312.161 287.246 312.161 286.231C312.161 285.643 312.075 285.019 311.902 284.359C311.73 283.69 311.502 283 311.218 282.29C310.944 281.57 310.619 280.834 310.244 280.083C309.878 279.322 309.498 278.546 309.102 277.755L313.257 275.122L314.794 278.09C315.21 278.932 315.61 279.581 315.996 280.038C316.391 280.484 316.772 280.814 317.137 281.027C317.502 281.23 317.847 281.351 318.172 281.392C318.507 281.422 318.816 281.438 319.1 281.438C319.435 281.438 319.749 281.499 320.044 281.62C320.338 281.742 320.591 281.914 320.804 282.138C321.028 282.351 321.2 282.604 321.322 282.899C321.454 283.193 321.52 283.507 321.52 283.842C321.52 284.177 321.454 284.491 321.322 284.786C321.2 285.08 321.028 285.333 320.804 285.546C320.591 285.759 320.338 285.927 320.044 286.049C319.749 286.18 319.435 286.246 319.1 286.246ZM304.583 271.562L307.961 274.94L304.583 278.318L301.204 274.94L304.583 271.562ZM316.723 283.842C316.723 283.507 316.789 283.193 316.921 282.899C317.052 282.604 317.235 282.351 317.468 282.138C317.692 281.925 317.955 281.757 318.26 281.636C318.554 281.504 318.868 281.438 319.203 281.438H333.021C333.345 281.438 333.655 281.504 333.949 281.636C334.243 281.757 334.497 281.925 334.71 282.138C334.933 282.351 335.11 282.604 335.242 282.899C335.374 283.193 335.44 283.507 335.44 283.842C335.44 284.177 335.374 284.491 335.242 284.786C335.11 285.08 334.933 285.333 334.71 285.546C334.497 285.77 334.243 285.942 333.949 286.064C333.655 286.186 333.345 286.246 333.021 286.246H319.188C318.863 286.246 318.554 286.186 318.26 286.064C317.955 285.942 317.692 285.77 317.468 285.546C317.235 285.333 317.052 285.08 316.921 284.786C316.789 284.491 316.723 284.177 316.723 283.842ZM330.501 283.842C330.501 283.507 330.562 283.193 330.683 282.899C330.805 282.604 330.978 282.351 331.201 282.138C331.414 281.914 331.668 281.742 331.962 281.62C332.256 281.499 332.57 281.438 332.905 281.438H334.062C334.792 281.438 335.492 281.407 336.162 281.346C336.841 281.286 337.44 281.159 337.957 280.966C338.475 280.763 338.891 280.484 339.205 280.129C339.53 279.764 339.702 279.282 339.723 278.683C339.733 278.46 339.733 278.278 339.723 278.136C339.723 277.983 339.697 277.806 339.647 277.603C339.596 277.39 339.52 277.116 339.418 276.781C339.327 276.436 339.195 275.954 339.023 275.336L343.451 274.088C343.644 274.575 343.821 275.219 343.983 276.02C344.146 276.822 344.268 277.699 344.349 278.653C344.369 278.957 344.404 279.272 344.455 279.596C344.506 279.921 344.587 280.22 344.699 280.494C344.82 280.768 344.983 280.996 345.186 281.179C345.389 281.351 345.652 281.438 345.977 281.438C346.312 281.438 346.626 281.499 346.92 281.62C347.215 281.742 347.468 281.914 347.681 282.138C347.904 282.351 348.077 282.604 348.199 282.899C348.331 283.193 348.397 283.507 348.397 283.842C348.397 284.177 348.331 284.491 348.199 284.786C348.077 285.08 347.904 285.333 347.681 285.546C347.458 285.77 347.199 285.942 346.905 286.064C346.621 286.186 346.317 286.246 345.992 286.246C345.018 286.246 344.181 286.094 343.481 285.79C342.791 285.496 342.198 285.11 341.701 284.633C341.244 284.938 340.717 285.191 340.118 285.394C339.53 285.597 338.901 285.759 338.231 285.881C337.562 286.013 336.872 286.104 336.162 286.155C335.452 286.216 334.752 286.246 334.062 286.246H332.905C332.57 286.246 332.256 286.186 331.962 286.064C331.668 285.942 331.414 285.77 331.201 285.546C330.978 285.333 330.805 285.08 330.683 284.786C330.562 284.491 330.501 284.177 330.501 283.842ZM345.064 291.709L342.142 294.646L339.251 291.755L336.39 294.616L333.438 291.679L336.36 288.742L339.251 291.633L342.112 288.772L345.064 291.709ZM343.592 283.842C343.592 283.507 343.658 283.193 343.789 282.899C343.911 282.604 344.079 282.351 344.292 282.138C344.505 281.914 344.758 281.742 345.053 281.62C345.347 281.499 345.661 281.438 345.996 281.438H347.563H348.248C348.624 281.438 349.014 281.422 349.42 281.392C349.836 281.362 350.221 281.301 350.576 281.209C350.942 281.118 351.261 280.991 351.535 280.829C351.819 280.667 352.022 280.449 352.144 280.175C352.225 279.992 352.266 279.718 352.266 279.353C352.266 279.109 352.195 278.744 352.053 278.257C351.911 277.77 351.723 277.233 351.489 276.644C351.256 276.046 350.992 275.422 350.698 274.772C350.404 274.123 350.105 273.509 349.8 272.931L354.153 270.77C354.437 271.409 354.716 272.089 354.989 272.809C355.274 273.53 355.527 274.26 355.75 275.001C355.974 275.741 356.151 276.482 356.283 277.222C356.425 277.953 356.496 278.653 356.496 279.322C356.496 280.347 356.313 281.286 355.948 282.138C355.522 283.091 354.939 283.883 354.198 284.512C353.458 285.13 352.57 285.587 351.535 285.881C350.926 286.054 350.343 286.155 349.785 286.186C349.227 286.226 348.705 286.246 348.218 286.246H346.133H345.996C345.661 286.246 345.347 286.186 345.053 286.064C344.758 285.942 344.505 285.77 344.292 285.546C344.079 285.333 343.911 285.08 343.789 284.786C343.658 284.491 343.592 284.177 343.592 283.842ZM350.5 287.631L353.879 291.009L350.5 294.388L347.122 291.009L350.5 287.631ZM373.863 284.116C372.423 284.116 371.185 283.923 370.15 283.538C369.115 283.142 368.294 282.589 367.685 281.879C367.33 281.422 367.071 280.93 366.909 280.403C366.757 279.865 366.681 279.353 366.681 278.866C366.681 278.44 366.716 278.054 366.787 277.709C366.858 277.364 366.944 277.07 367.046 276.827C367.452 275.975 367.949 275.229 368.537 274.59C369.136 273.951 369.755 273.398 370.394 272.931C371.043 272.454 371.682 272.059 372.311 271.744C372.95 271.43 373.518 271.171 374.015 270.968C373.995 270.735 373.975 270.496 373.955 270.253C373.944 270.009 373.929 269.776 373.909 269.553L373.833 268.594L378.581 267.575C378.591 267.666 378.611 267.879 378.641 268.214C378.682 268.549 378.723 268.949 378.763 269.416C378.814 269.872 378.865 270.364 378.915 270.892C378.976 271.409 379.027 271.896 379.068 272.353C379.118 272.809 379.159 273.205 379.189 273.54C379.23 273.875 379.255 274.078 379.265 274.149C379.418 275.396 379.544 276.421 379.646 277.222C379.757 278.024 379.849 278.663 379.92 279.14C380.001 279.607 380.067 279.946 380.118 280.159C380.168 280.362 380.209 280.499 380.239 280.57C380.391 280.895 380.62 281.123 380.924 281.255C381.239 281.377 381.655 281.438 382.172 281.438C382.497 281.438 382.806 281.499 383.1 281.62C383.394 281.742 383.648 281.914 383.861 282.138C384.084 282.351 384.262 282.604 384.394 282.899C384.526 283.193 384.591 283.507 384.591 283.842C384.591 284.177 384.526 284.491 384.394 284.786C384.262 285.08 384.084 285.333 383.861 285.546C383.648 285.759 383.394 285.927 383.1 286.049C382.806 286.18 382.497 286.246 382.172 286.246C381.959 286.246 381.72 286.236 381.457 286.216C381.193 286.206 380.914 286.175 380.62 286.125C380.336 286.084 380.036 286.018 379.722 285.927C379.418 285.846 379.113 285.734 378.809 285.592C378.383 285.389 378.007 285.161 377.683 284.907C377.368 284.643 377.064 284.314 376.77 283.918C376.252 283.989 375.75 284.04 375.263 284.07C374.786 284.101 374.32 284.116 373.863 284.116ZM373.772 279.338C373.985 279.338 374.203 279.333 374.426 279.322C374.66 279.302 374.883 279.282 375.096 279.262C375.045 278.917 374.989 278.531 374.928 278.105C374.878 277.679 374.827 277.222 374.776 276.736L374.624 275.336C374.239 275.528 373.807 275.762 373.331 276.036C372.854 276.299 372.402 276.583 371.976 276.888C371.56 277.182 371.21 277.486 370.926 277.801C370.642 278.105 370.5 278.389 370.5 278.653C370.5 278.785 370.612 278.896 370.835 278.988C371.068 279.069 371.352 279.14 371.687 279.201C372.022 279.251 372.377 279.287 372.752 279.307C373.128 279.328 373.468 279.338 373.772 279.338ZM380.077 283.842C380.077 283.497 380.138 283.178 380.26 282.883C380.382 282.589 380.554 282.336 380.777 282.122C380.99 281.909 381.244 281.742 381.538 281.62C381.832 281.499 382.147 281.438 382.482 281.438H383.516C383.719 281.438 383.922 281.443 384.125 281.453C384.328 281.453 384.531 281.453 384.734 281.453C384.916 281.453 385.038 281.458 385.099 281.468C385.16 281.468 385.201 281.473 385.221 281.483C385.251 281.483 385.282 281.483 385.312 281.483C385.353 281.483 385.434 281.473 385.556 281.453C385.373 281.25 385.195 281.017 385.023 280.753C384.861 280.489 384.708 280.205 384.566 279.901C384.435 279.586 384.323 279.257 384.232 278.912C384.14 278.557 384.085 278.186 384.064 277.801C384.074 276.847 384.237 275.929 384.551 275.046C384.866 274.154 385.312 273.342 385.89 272.612C386.53 271.82 387.265 271.201 388.097 270.755C388.929 270.309 389.791 270.106 390.684 270.146C391.566 270.187 392.388 270.415 393.149 270.831C393.91 271.247 394.564 271.785 395.112 272.444C395.67 273.104 396.106 273.854 396.421 274.696C396.745 275.528 396.908 276.386 396.908 277.268C396.908 277.968 396.791 278.658 396.558 279.338C396.324 280.007 396.03 280.646 395.675 281.255C396.162 281.306 396.669 281.351 397.197 281.392C397.735 281.422 398.206 281.438 398.612 281.438C398.957 281.438 399.277 281.499 399.571 281.62C399.865 281.742 400.119 281.909 400.332 282.122C400.555 282.336 400.727 282.589 400.849 282.883C400.971 283.178 401.032 283.497 401.032 283.842C401.032 284.177 400.971 284.491 400.849 284.786C400.727 285.08 400.555 285.333 400.332 285.546C400.119 285.77 399.865 285.942 399.571 286.064C399.277 286.186 398.957 286.246 398.612 286.246H398.475C398.151 286.246 397.795 286.236 397.41 286.216C397.024 286.206 396.639 286.191 396.253 286.17C395.868 286.15 395.487 286.12 395.112 286.079C394.747 286.049 394.417 286.013 394.123 285.972C393.575 285.891 393.017 285.785 392.449 285.653C391.891 285.521 391.308 285.308 390.699 285.014C390.324 285.227 389.822 285.409 389.193 285.562C388.574 285.724 387.894 285.851 387.153 285.942C386.413 286.043 385.647 286.12 384.856 286.17C384.064 286.221 383.314 286.246 382.603 286.246H382.482C382.147 286.246 381.832 286.186 381.538 286.064C381.244 285.942 380.99 285.77 380.777 285.546C380.554 285.333 380.382 285.08 380.26 284.786C380.138 284.491 380.077 284.177 380.077 283.842ZM392.875 277.618C392.875 277.293 392.794 276.984 392.632 276.69C392.48 276.396 392.287 276.132 392.053 275.899C391.83 275.665 391.587 275.472 391.323 275.32C391.059 275.158 390.821 275.046 390.608 274.986C390.374 275.036 390.106 275.128 389.801 275.259C389.507 275.391 389.223 275.579 388.949 275.822C388.685 276.056 388.462 276.345 388.28 276.69C388.097 277.025 388.006 277.425 388.006 277.892C388.006 278.044 388.082 278.257 388.234 278.531C388.396 278.795 388.599 279.069 388.843 279.353C389.096 279.627 389.38 279.886 389.695 280.129C390.019 280.362 390.349 280.53 390.684 280.631C390.937 280.489 391.196 280.296 391.46 280.053C391.724 279.799 391.957 279.536 392.16 279.262C392.373 278.978 392.545 278.693 392.677 278.409C392.809 278.115 392.875 277.851 392.875 277.618ZM396.223 264.896L393.301 267.833L390.41 264.942L387.549 267.803L384.597 264.866L387.519 261.929L390.41 264.82L393.271 261.959L396.223 264.896ZM396.377 283.842C396.377 283.517 396.443 283.213 396.574 282.929C396.706 282.635 396.884 282.376 397.107 282.153C397.32 281.93 397.574 281.757 397.868 281.636C398.162 281.504 398.472 281.438 398.796 281.438H400.561C400.734 281.143 400.972 280.748 401.277 280.251C401.581 279.754 401.977 279.201 402.464 278.592C402.545 277.953 402.616 277.167 402.677 276.233C402.737 275.3 402.773 274.286 402.783 273.19C402.783 272.784 402.778 272.393 402.768 272.018C402.768 271.643 402.758 271.247 402.737 270.831C402.727 270.405 402.702 269.943 402.661 269.446C402.631 268.939 402.59 268.356 402.54 267.696C402.489 267.037 402.423 266.281 402.342 265.429C402.261 264.577 402.164 263.593 402.053 262.477L406.953 261.229C407.095 262.274 407.211 263.283 407.303 264.257C407.404 265.231 407.48 266.205 407.531 267.179C407.592 268.153 407.632 269.142 407.653 270.146C407.683 271.141 407.698 272.18 407.698 273.266C408.226 272.85 408.769 272.459 409.327 272.094C409.895 271.719 410.478 271.394 411.077 271.12C411.685 270.846 412.314 270.633 412.964 270.481C413.613 270.319 414.298 270.238 415.018 270.238C415.85 270.238 416.636 270.37 417.377 270.633C418.117 270.897 418.772 271.278 419.34 271.775C419.918 272.272 420.39 272.875 420.755 273.586C421.13 274.296 421.364 275.097 421.455 275.99C421.495 277.096 421.374 278.1 421.09 279.003C420.816 279.896 420.42 280.707 419.903 281.438H422.961C423.296 281.438 423.611 281.499 423.905 281.62C424.199 281.742 424.453 281.909 424.666 282.122C424.889 282.336 425.061 282.589 425.183 282.883C425.305 283.178 425.366 283.492 425.366 283.827C425.366 284.162 425.305 284.476 425.183 284.77C425.061 285.064 424.889 285.318 424.666 285.531C424.453 285.754 424.199 285.927 423.905 286.049C423.611 286.18 423.291 286.246 422.946 286.246H419.187C418.386 286.246 417.493 286.211 416.509 286.14C415.535 286.079 414.45 285.896 413.253 285.592C412.39 285.825 411.513 285.993 410.62 286.094C409.727 286.206 408.835 286.262 407.942 286.262L398.933 286.246H398.796C398.472 286.246 398.162 286.186 397.868 286.064C397.574 285.942 397.32 285.775 397.107 285.562C396.884 285.349 396.706 285.095 396.574 284.801C396.443 284.507 396.377 284.187 396.377 283.842ZM406.192 281.438C406.79 281.438 407.49 281.422 408.292 281.392C409.103 281.362 409.94 281.296 410.803 281.194C411.665 281.093 412.512 280.946 413.344 280.753C414.176 280.55 414.916 280.281 415.566 279.946C416.215 279.601 416.732 279.175 417.118 278.668C417.503 278.161 417.676 277.547 417.635 276.827C417.615 276.604 417.503 276.391 417.3 276.188C417.098 275.985 416.834 275.807 416.509 275.655C416.185 275.503 415.819 275.381 415.414 275.29C415.008 275.199 414.597 275.153 414.181 275.153C413.724 275.183 413.156 275.315 412.477 275.549C411.807 275.772 411.087 276.127 410.316 276.614C409.545 277.101 408.748 277.74 407.927 278.531C407.115 279.312 406.334 280.281 405.583 281.438H406.192ZM420.534 283.842C420.534 283.507 420.595 283.193 420.717 282.899C420.838 282.604 421.011 282.351 421.234 282.138C421.447 281.925 421.701 281.757 421.995 281.636C422.289 281.504 422.604 281.438 422.938 281.438H423.197C424.607 281.438 425.673 281.214 426.393 280.768C427.113 280.312 427.473 279.622 427.473 278.699C427.473 278.516 427.473 278.354 427.473 278.212C427.483 278.07 427.468 277.887 427.428 277.664C427.397 277.43 427.331 277.131 427.23 276.766C427.138 276.391 426.996 275.878 426.804 275.229L431.141 274.179C431.354 274.788 431.541 275.472 431.704 276.233C431.866 276.984 431.947 277.806 431.947 278.699C431.947 278.993 431.973 279.302 432.023 279.627C432.084 279.941 432.175 280.236 432.297 280.509C432.429 280.773 432.602 280.996 432.815 281.179C433.038 281.351 433.317 281.438 433.652 281.438C433.976 281.438 434.286 281.504 434.58 281.636C434.874 281.757 435.128 281.925 435.341 282.138C435.564 282.351 435.741 282.604 435.873 282.899C436.005 283.193 436.071 283.507 436.071 283.842C436.071 284.177 436.005 284.491 435.873 284.786C435.752 285.08 435.579 285.333 435.356 285.546C435.133 285.77 434.874 285.942 434.58 286.064C434.296 286.186 433.991 286.246 433.667 286.246C432.693 286.246 431.861 286.104 431.171 285.82C430.481 285.546 429.888 285.176 429.391 284.709C428.66 285.237 427.788 285.622 426.773 285.866C425.769 286.12 424.577 286.246 423.197 286.246H422.938C422.604 286.246 422.289 286.186 421.995 286.064C421.701 285.942 421.447 285.77 421.234 285.546C421.011 285.333 420.838 285.08 420.717 284.786C420.595 284.491 420.534 284.177 420.534 283.842ZM428.858 264.927L432.236 268.305L428.858 271.683L425.48 268.305L428.858 264.927ZM431.282 283.842C431.282 283.507 431.343 283.198 431.464 282.914C431.586 282.63 431.754 282.381 431.967 282.168C432.18 281.955 432.433 281.788 432.727 281.666C433.011 281.534 433.321 281.458 433.656 281.438C434.335 281.438 434.924 281.306 435.421 281.042C435.928 280.778 436.375 280.433 436.76 280.007C437.146 279.581 437.49 279.104 437.795 278.577C438.099 278.049 438.388 277.522 438.662 276.994V277.009C438.926 276.462 439.205 275.919 439.499 275.381C439.804 274.843 440.133 274.346 440.488 273.89C441.036 273.251 441.65 272.759 442.33 272.414C443.009 272.059 443.735 271.881 444.506 271.881C445.419 271.881 446.246 272.069 446.986 272.444C447.737 272.82 448.417 273.357 449.025 274.057C449.482 274.605 449.852 275.234 450.136 275.944C450.42 276.644 450.608 277.39 450.699 278.181V278.151C450.76 278.546 450.79 278.998 450.79 279.505C450.79 280.053 450.74 280.591 450.638 281.118C450.547 281.636 450.415 282.128 450.243 282.594C449.908 283.446 449.426 284.162 448.797 284.74C448.178 285.308 447.504 285.699 446.773 285.912C446.53 285.983 446.286 286.028 446.043 286.049C445.809 286.079 445.561 286.094 445.297 286.094C444.84 286.094 444.354 286.038 443.836 285.927C443.329 285.815 442.827 285.663 442.33 285.47C442.127 285.379 441.898 285.272 441.645 285.151C441.391 285.019 441.122 284.877 440.838 284.725C440.564 284.572 440.29 284.415 440.017 284.253C439.743 284.091 439.489 283.933 439.256 283.781C438.85 284.157 438.444 284.496 438.038 284.801C437.632 285.105 437.206 285.364 436.76 285.577C436.314 285.79 435.837 285.952 435.33 286.064C434.822 286.186 434.269 286.246 433.671 286.246C433.336 286.246 433.027 286.18 432.743 286.049C432.448 285.927 432.195 285.759 431.982 285.546C431.759 285.333 431.586 285.08 431.464 284.786C431.343 284.491 431.282 284.177 431.282 283.842ZM442.071 279.84C442.385 280.043 442.756 280.241 443.182 280.433C443.618 280.626 444.049 280.799 444.475 280.951C444.901 281.103 445.292 281.23 445.647 281.331C446.012 281.422 446.286 281.468 446.469 281.468C446.509 281.468 446.55 281.468 446.59 281.468C446.641 281.458 446.692 281.448 446.743 281.438C446.864 281.407 446.981 281.255 447.093 280.981C447.214 280.697 447.26 280.312 447.23 279.825C447.23 279.5 447.138 279.145 446.956 278.759C446.773 278.364 446.535 277.999 446.24 277.664C445.946 277.319 445.606 277.035 445.221 276.812C444.846 276.578 444.46 276.462 444.064 276.462C443.922 276.462 443.74 276.664 443.517 277.07C443.293 277.476 442.969 278.08 442.543 278.881V278.866L442.071 279.84Z" fill="#1E429F"/>
<path d="M5.37913 343.218V324.958H7.67478V343.218H5.37913ZM19.3808 331.646C19.0469 331.591 18.6573 331.563 18.2121 331.563C16.6539 331.563 15.593 332.227 15.0295 333.556V343.218H12.8278V329.674H14.9669L15.0086 331.406C15.8365 330.085 16.9426 329.424 18.3269 329.424C18.7165 329.424 19.0434 329.479 19.3078 329.591V331.709L19.3808 331.646ZM30.9743 343.26C30.856 343.038 30.7447 342.519 30.6404 341.705C29.4995 342.881 28.1882 343.469 26.7064 343.469C25.3777 343.469 24.2821 343.09 23.4195 342.331C22.5777 341.594 22.1569 340.648 22.1569 339.493C22.1569 338.088 22.689 337.003 23.7534 336.238C24.8247 335.451 26.3343 335.058 28.2821 335.058H30.6195V333.921C30.6195 333.072 30.369 332.408 29.8682 331.928C29.3534 331.427 28.6195 331.177 27.6664 331.177C26.8247 331.177 26.1117 331.392 25.5273 331.824C24.9638 332.241 24.6751 332.745 24.6612 333.337H22.4386C22.4456 332.704 22.6786 332.081 23.1377 331.469C23.6177 330.843 24.2682 330.345 25.089 329.977C25.9308 329.608 26.8351 329.424 27.8021 329.424C29.3604 329.424 30.5812 329.817 31.4647 330.603C32.3343 331.361 32.7899 332.425 32.8317 333.796V340.088C32.8317 341.312 32.9917 342.318 33.3117 343.104V343.218H30.9221L30.9743 343.26ZM27.0404 341.559C27.7847 341.559 28.4908 341.368 29.1586 340.985C29.8404 340.589 30.3273 340.088 30.6195 339.483V336.582H28.7204C25.8195 336.582 24.369 337.441 24.369 339.159C24.369 339.911 24.6195 340.502 25.1204 340.933C25.6212 341.351 26.2612 341.559 27.0404 341.559ZM39.7698 331.511C40.8828 330.119 42.2637 329.424 43.9124 329.424C46.7576 329.424 48.1941 331.034 48.2219 334.255V343.218H46.0098V334.234C45.9959 332.265 45.0602 331.281 43.2028 331.281C42.4585 331.281 41.7837 331.49 41.1785 331.907C40.608 332.304 40.1489 332.85 39.8011 333.545V343.218H37.5993V329.674H39.6759L39.7698 331.511ZM61.1088 343.218V324.958H63.4045V343.218H61.1088ZM70.7279 331.511C71.8409 330.119 73.2218 329.424 74.8705 329.424C77.7157 329.424 79.1522 331.034 79.1801 334.255V343.218H76.9679V334.234C76.954 332.265 76.0183 331.281 74.1609 331.281C73.4166 331.281 72.7418 331.49 72.1366 331.907C71.5662 332.304 71.107 332.85 70.7592 333.545V343.218H68.5575V329.674H70.634L70.7279 331.511ZM86.8274 329.674H89.3839V331.354H86.8274V339.9C86.8274 340.485 86.9457 340.909 87.1822 341.173C87.4326 341.458 87.8361 341.601 88.3926 341.601C88.6848 341.601 89.0361 341.559 89.4466 341.476V343.229C88.8205 343.389 88.2431 343.469 87.7144 343.469C86.6987 343.469 85.9266 343.159 85.3979 342.54C84.8761 341.928 84.6152 341.048 84.6152 339.9V331.354H82.1318V329.674H84.6152V326.366H86.8274V329.674ZM98.8153 343.469C96.9788 343.469 95.4866 342.871 94.3388 341.674C93.191 340.457 92.6171 338.839 92.6171 336.822V336.394C92.6171 335.051 92.871 333.851 93.3788 332.794C93.8866 331.744 94.6031 330.919 95.5284 330.321C96.4605 329.723 97.4588 329.424 98.5231 329.424C100.29 329.424 101.654 330.001 102.614 331.156C103.594 332.325 104.085 333.987 104.085 336.144V337.051H94.8188C94.8605 338.457 95.2571 339.58 96.0084 340.422C96.7875 341.271 97.7649 341.695 98.9405 341.695C100.387 341.695 101.591 341.086 102.551 339.869L102.895 340.13L103.219 340.391L103.876 340.902C102.728 342.613 101.041 343.469 98.8153 343.469ZM98.5231 331.218C97.5631 331.218 96.7562 331.573 96.1023 332.283C95.4623 332.958 95.0588 333.949 94.8918 335.257H101.873C101.803 333.942 101.476 332.937 100.892 332.241C100.321 331.559 99.5318 331.218 98.5231 331.218ZM114.436 331.646C114.102 331.591 113.712 331.563 113.267 331.563C111.709 331.563 110.648 332.227 110.085 333.556V343.218H107.883V329.674H110.022L110.064 331.406C110.891 330.085 111.998 329.424 113.382 329.424C113.771 329.424 114.098 329.479 114.363 329.591V331.709L114.436 331.646ZM119.779 331.511C120.892 330.119 122.273 329.424 123.921 329.424C126.767 329.424 128.203 331.034 128.231 334.255V343.218H126.019V334.234C126.005 332.265 125.069 331.281 123.212 331.281C122.468 331.281 121.793 331.49 121.188 331.907C120.617 332.304 120.158 332.85 119.81 333.545V343.218H117.608V329.674H119.685L119.779 331.511ZM141.263 343.26C141.144 343.038 141.033 342.519 140.929 341.705C139.788 342.881 138.477 343.469 136.995 343.469C135.666 343.469 134.571 343.09 133.708 342.331C132.866 341.594 132.445 340.648 132.445 339.493C132.445 338.088 132.977 337.003 134.042 336.238C135.113 335.451 136.623 335.058 138.571 335.058H140.908V333.921C140.908 333.072 140.657 332.408 140.157 331.928C139.642 331.427 138.908 331.177 137.955 331.177C137.113 331.177 136.4 331.392 135.816 331.824C135.252 332.241 134.964 332.745 134.95 333.337H132.727C132.734 332.704 132.967 332.081 133.426 331.469C133.906 330.843 134.557 330.345 135.377 329.977C136.219 329.608 137.124 329.424 138.091 329.424C139.649 329.424 140.87 329.817 141.753 330.603C142.623 331.361 143.078 332.425 143.12 333.796V340.088C143.12 341.312 143.28 342.318 143.6 343.104V343.218H141.211L141.263 343.26ZM137.329 341.559C138.073 341.559 138.779 341.368 139.447 340.985C140.129 340.589 140.616 340.088 140.908 339.483V336.582H139.009C136.108 336.582 134.657 337.441 134.657 339.159C134.657 339.911 134.908 340.502 135.409 340.933C135.91 341.351 136.55 341.559 137.329 341.559ZM150.924 329.674H153.481V331.354H150.924V339.9C150.924 340.485 151.043 340.909 151.279 341.173C151.53 341.458 151.933 341.601 152.49 341.601C152.782 341.601 153.133 341.559 153.543 341.476V343.229C152.917 343.389 152.34 343.469 151.811 343.469C150.796 343.469 150.023 343.159 149.495 342.54C148.973 341.928 148.712 341.048 148.712 339.9V331.354H146.229V329.674H148.712V326.366H150.924V329.674ZM157.507 343.218V329.674H159.719V343.218H157.507ZM157.319 325.991C157.319 325.615 157.427 325.309 157.643 325.072C157.879 324.822 158.21 324.697 158.634 324.697C159.051 324.697 159.382 324.822 159.625 325.072C159.848 325.309 159.959 325.615 159.959 325.991C159.959 326.366 159.848 326.665 159.625 326.888C159.382 327.131 159.051 327.253 158.634 327.253C158.21 327.253 157.879 327.131 157.643 326.888C157.427 326.665 157.319 326.366 157.319 325.991ZM163.924 336.321C163.924 335.013 164.185 333.817 164.706 332.731H164.696C165.197 331.688 165.927 330.874 166.887 330.29C167.826 329.712 168.887 329.424 170.07 329.424C171.962 329.424 173.479 330.109 174.62 331.479C175.705 332.78 176.244 334.432 176.237 336.436C176.237 338.509 175.666 340.203 174.526 341.518C173.378 342.853 171.9 343.504 170.091 343.469C168.122 343.448 166.588 342.756 165.489 341.392C164.446 340.105 163.924 338.415 163.924 336.321ZM166.146 336.603C166.112 338.001 166.425 339.173 167.086 340.119C167.809 341.17 168.811 341.695 170.091 341.695C171.44 341.695 172.46 341.142 173.148 340.036C173.74 339.09 174.035 337.851 174.035 336.321C174.035 334.937 173.712 333.768 173.065 332.815C172.334 331.751 171.336 331.218 170.07 331.218C168.741 331.218 167.726 331.771 167.023 332.878C166.411 333.851 166.119 335.093 166.146 336.603ZM182.446 331.511C183.559 330.119 184.94 329.424 186.589 329.424C189.434 329.424 190.87 331.034 190.898 334.255V343.218H188.686V334.234C188.672 332.265 187.736 331.281 185.879 331.281C185.135 331.281 184.46 331.49 183.855 331.907C183.284 332.304 182.825 332.85 182.477 333.545V343.218H180.276V329.674H182.352L182.446 331.511ZM203.93 343.26C203.812 343.038 203.7 342.519 203.596 341.705C202.455 342.881 201.144 343.469 199.662 343.469C198.333 343.469 197.238 343.09 196.375 342.331C195.533 341.594 195.113 340.648 195.113 339.493C195.113 338.088 195.645 337.003 196.709 336.238C197.78 335.451 199.29 335.058 201.238 335.058H203.575V333.921C203.575 333.072 203.325 332.408 202.824 331.928C202.309 331.427 201.575 331.177 200.622 331.177C199.78 331.177 199.067 331.392 198.483 331.824C197.919 332.241 197.631 332.745 197.617 333.337H195.394C195.401 332.704 195.634 332.081 196.093 331.469C196.573 330.843 197.224 330.345 198.045 329.977C198.886 329.608 199.791 329.424 200.758 329.424C202.316 329.424 203.537 329.817 204.42 330.603C205.29 331.361 205.746 332.425 205.787 333.796V340.088C205.787 341.312 205.947 342.318 206.267 343.104V343.218H203.878L203.93 343.26ZM199.996 341.559C200.74 341.559 201.446 341.368 202.114 340.985C202.796 340.589 203.283 340.088 203.575 339.483V336.582H201.676C198.775 336.582 197.325 337.441 197.325 339.159C197.325 339.911 197.575 340.502 198.076 340.933C198.577 341.351 199.217 341.559 199.996 341.559ZM210.753 343.218V323.945H212.965V343.218H210.753ZM226.072 343.218V324.958H228.368V343.218H226.072ZM235.691 331.511C236.804 330.119 238.185 329.424 239.834 329.424C242.679 329.424 244.116 331.034 244.144 334.255V343.218H241.931V334.234C241.917 332.265 240.982 331.281 239.124 331.281C238.38 331.281 237.705 331.49 237.1 331.907C236.53 332.304 236.07 332.85 235.723 333.545V343.218H233.521V329.674H235.597L235.691 331.511ZM250.925 331.511C252.038 330.119 253.419 329.424 255.067 329.424C257.913 329.424 259.349 331.034 259.377 334.255V343.218H257.165V334.234C257.151 332.265 256.215 331.281 254.358 331.281C253.613 331.281 252.939 331.49 252.333 331.907C251.763 332.304 251.304 332.85 250.956 333.545V343.218H248.754V329.674H250.831L250.925 331.511ZM263.362 336.321C263.362 335.013 263.623 333.817 264.144 332.731H264.134C264.635 331.688 265.365 330.874 266.325 330.29C267.264 329.712 268.325 329.424 269.508 329.424C271.4 329.424 272.916 330.109 274.057 331.479C275.143 332.78 275.682 334.432 275.675 336.436C275.675 338.509 275.104 340.203 273.963 341.518C272.816 342.853 271.337 343.504 269.529 343.469C267.56 343.448 266.026 342.756 264.927 341.392C263.883 340.105 263.362 338.415 263.362 336.321ZM265.584 336.603C265.55 338.001 265.863 339.173 266.523 340.119C267.247 341.17 268.249 341.695 269.529 341.695C270.878 341.695 271.897 341.142 272.586 340.036C273.177 339.09 273.473 337.851 273.473 336.321C273.473 334.937 273.15 333.768 272.503 332.815C271.772 331.751 270.774 331.218 269.508 331.218C268.179 331.218 267.163 331.771 266.461 332.878C265.849 333.851 265.556 335.093 265.584 336.603ZM287.592 329.674H289.835L284.973 343.218H283.293L280.84 336.446L278.399 329.674H280.632L284.159 340.328L287.592 329.674ZM301.633 343.26C301.515 343.038 301.404 342.519 301.299 341.705C300.159 342.881 298.847 343.469 297.366 343.469C296.037 343.469 294.941 343.09 294.079 342.331C293.237 341.594 292.816 340.648 292.816 339.493C292.816 338.088 293.348 337.003 294.412 336.238C295.484 335.451 296.993 335.058 298.941 335.058H301.279V333.921C301.279 333.072 301.028 332.408 300.527 331.928C300.012 331.427 299.279 331.177 298.326 331.177C297.484 331.177 296.771 331.392 296.186 331.824C295.623 332.241 295.334 332.745 295.32 333.337H293.098C293.105 332.704 293.338 332.081 293.797 331.469C294.277 330.843 294.927 330.345 295.748 329.977C296.59 329.608 297.494 329.424 298.461 329.424C300.019 329.424 301.24 329.817 302.124 330.603C302.993 331.361 303.449 332.425 303.491 333.796V340.088C303.491 341.312 303.651 342.318 303.971 343.104V343.218H301.581L301.633 343.26ZM297.699 341.559C298.444 341.559 299.15 341.368 299.818 340.985C300.499 340.589 300.986 340.088 301.279 339.483V336.582H299.379C296.479 336.582 295.028 337.441 295.028 339.159C295.028 339.911 295.279 340.502 295.779 340.933C296.28 341.351 296.92 341.559 297.699 341.559ZM311.295 329.674H313.851V331.354H311.295V339.9C311.295 340.485 311.413 340.909 311.65 341.173C311.9 341.458 312.304 341.601 312.86 341.601C313.152 341.601 313.504 341.559 313.914 341.476V343.229C313.288 343.389 312.711 343.469 312.182 343.469C311.166 343.469 310.394 343.159 309.865 342.54C309.344 341.928 309.083 341.048 309.083 339.9V331.354H306.599V329.674H309.083V326.366H311.295V329.674ZM317.878 343.218V329.674H320.09V343.218H317.878ZM317.69 325.991C317.69 325.615 317.798 325.309 318.013 325.072C318.25 324.822 318.58 324.697 319.005 324.697C319.422 324.697 319.752 324.822 319.996 325.072C320.218 325.309 320.33 325.615 320.33 325.991C320.33 326.366 320.218 326.665 319.996 326.888C319.752 327.131 319.422 327.253 319.005 327.253C318.58 327.253 318.25 327.131 318.013 326.888C317.798 326.665 317.69 326.366 317.69 325.991ZM324.295 336.321C324.295 335.013 324.555 333.817 325.077 332.731H325.067C325.568 331.688 326.298 330.874 327.258 330.29C328.197 329.712 329.258 329.424 330.441 329.424C332.333 329.424 333.849 330.109 334.99 331.479C336.075 332.78 336.615 334.432 336.608 336.436C336.608 338.509 336.037 340.203 334.896 341.518C333.748 342.853 332.27 343.504 330.461 343.469C328.493 343.448 326.959 342.756 325.86 341.392C324.816 340.105 324.295 338.415 324.295 336.321ZM326.517 336.603C326.482 338.001 326.795 339.173 327.456 340.119C328.18 341.17 329.181 341.695 330.461 341.695C331.811 341.695 332.83 341.142 333.519 340.036C334.11 339.09 334.406 337.851 334.406 336.321C334.406 334.937 334.082 333.768 333.435 332.815C332.705 331.751 331.707 331.218 330.441 331.218C329.112 331.218 328.096 331.771 327.394 332.878C326.781 333.851 326.489 335.093 326.517 336.603ZM342.817 331.511C343.93 330.119 345.311 329.424 346.959 329.424C349.804 329.424 351.241 331.034 351.269 334.255V343.218H349.057V334.234C349.043 332.265 348.107 331.281 346.25 331.281C345.505 331.281 344.831 331.49 344.225 331.907C343.655 332.304 343.196 332.85 342.848 333.545V343.218H340.646V329.674H342.723L342.817 331.511ZM363.978 324.958H369.102C371.481 324.916 373.425 325.695 374.935 327.295C376.437 328.888 377.175 330.944 377.147 333.462V334.641C377.182 337.222 376.444 339.302 374.935 340.881C373.432 342.453 371.453 343.232 368.997 343.218H363.978V324.958ZM366.274 341.361H368.893C370.778 341.361 372.246 340.773 373.297 339.598C374.347 338.429 374.872 336.759 374.872 334.589V333.514C374.872 331.406 374.375 329.775 373.38 328.62C372.392 327.438 370.987 326.839 369.164 326.825H366.274V341.361ZM381.74 343.218V329.674H383.952V343.218H381.74ZM381.552 325.991C381.552 325.615 381.66 325.309 381.876 325.072C382.112 324.822 382.443 324.697 382.867 324.697C383.284 324.697 383.615 324.822 383.858 325.072C384.081 325.309 384.192 325.615 384.192 325.991C384.192 326.366 384.081 326.665 383.858 326.888C383.615 327.131 383.284 327.253 382.867 327.253C382.443 327.253 382.112 327.131 381.876 326.888C381.66 326.665 381.552 326.366 381.552 325.991ZM396.734 339.66C396.734 339.02 396.487 338.512 395.994 338.137C395.458 337.775 394.62 337.469 393.479 337.218C392.234 336.947 391.298 336.648 390.672 336.321C389.343 335.639 388.679 334.655 388.679 333.368C388.679 332.255 389.141 331.323 390.067 330.571C391.013 329.806 392.213 329.424 393.667 329.424C395.19 329.424 396.432 329.82 397.392 330.613C398.331 331.378 398.807 332.363 398.821 333.566H396.599C396.585 332.947 396.303 332.401 395.754 331.928C395.204 331.455 394.508 331.218 393.667 331.218C392.804 331.218 392.122 331.41 391.621 331.792C391.134 332.161 390.891 332.662 390.891 333.295C390.891 333.865 391.12 334.307 391.58 334.62C392.011 334.905 392.825 335.184 394.021 335.455C395.232 335.719 396.174 336.025 396.849 336.373C398.247 337.062 398.947 338.102 398.947 339.493C398.947 340.69 398.467 341.65 397.507 342.373C396.547 343.104 395.291 343.469 393.74 343.469C392.668 343.469 391.712 343.278 390.87 342.895C390.035 342.519 389.381 341.987 388.908 341.298C388.456 340.631 388.223 339.911 388.209 339.138H390.432C390.494 339.918 390.825 340.537 391.423 340.996C392.014 341.462 392.787 341.695 393.74 341.695C394.644 341.695 395.371 341.511 395.92 341.142C396.463 340.766 396.734 340.272 396.734 339.66ZM406.116 329.674H408.672V331.354H406.116V339.9C406.116 340.485 406.234 340.909 406.47 341.173C406.721 341.458 407.124 341.601 407.681 341.601C407.973 341.601 408.324 341.559 408.735 341.476V343.229C408.109 343.389 407.531 343.469 407.002 343.469C405.987 343.469 405.215 343.159 404.686 342.54C404.164 341.928 403.903 341.048 403.903 339.9V331.354H401.42V329.674H403.903V326.366H406.116V329.674ZM419.053 331.646C418.719 331.591 418.33 331.563 417.884 331.563C416.326 331.563 415.265 332.227 414.702 333.556V343.218H412.5V329.674H414.639L414.681 331.406C415.509 330.085 416.615 329.424 417.999 329.424C418.389 329.424 418.716 329.479 418.98 329.591V331.709L419.053 331.646ZM422.424 343.218V329.674H424.636V343.218H422.424ZM422.236 325.991C422.236 325.615 422.344 325.309 422.56 325.072C422.796 324.822 423.126 324.697 423.551 324.697C423.968 324.697 424.299 324.822 424.542 325.072C424.765 325.309 424.876 325.615 424.876 325.991C424.876 326.366 424.765 326.665 424.542 326.888C424.299 327.131 423.968 327.253 423.551 327.253C423.126 327.253 422.796 327.131 422.56 326.888C422.344 326.665 422.236 326.366 422.236 325.991ZM434.872 341.695C435.728 341.695 436.469 341.438 437.095 340.923C437.707 340.422 438.062 339.792 438.159 339.034H440.236C440.201 339.758 439.936 340.471 439.442 341.173C438.956 341.876 438.298 342.436 437.47 342.853C436.649 343.264 435.783 343.469 434.872 343.469C433.07 343.469 431.606 342.86 430.479 341.643C429.387 340.356 428.841 338.665 428.841 336.571V336.185C428.834 334.182 429.373 332.554 430.458 331.302C431.571 330.022 433.039 329.396 434.862 329.424C436.378 329.424 437.637 329.879 438.639 330.791C439.634 331.695 440.166 332.85 440.236 334.255H438.159C438.082 333.399 437.735 332.679 437.116 332.095C436.496 331.511 435.745 331.218 434.862 331.218C433.644 331.218 432.709 331.653 432.055 332.523C431.387 333.392 431.053 334.641 431.053 336.269V336.718C431.053 338.311 431.383 339.535 432.044 340.391C432.705 341.26 433.648 341.695 434.872 341.695ZM447.01 329.674H449.567V331.354H447.01V339.9C447.01 340.485 447.128 340.909 447.365 341.173C447.615 341.458 448.019 341.601 448.575 341.601C448.868 341.601 449.219 341.559 449.629 341.476V343.229C449.003 343.389 448.426 343.469 447.897 343.469C446.882 343.469 446.109 343.159 445.581 342.54C445.059 341.928 444.798 341.048 444.798 339.9V331.354H442.315V329.674H444.798V326.366H447.01V329.674Z" fill="#1E429F"/>
<defs>
<clipPath id="clip0_93_64">
<rect width="448" height="219.333" fill="white" transform="translate(3)"/>
</clipPath>
</defs>
</svg>
